<svg viewBox="0 0 800 500" xmlns="http://www.w3.org/2000/svg">
    <!-- Background -->
    <rect width="800" height="500" fill="#ffffff"/>
    
    <!-- Point Cloud Section -->
    <g transform="translate(50,50)">
        <!-- Title -->
        <text x="0" y="-20" font-size="14" font-weight="bold">1. 入力点群データ</text>
        <text x="0" y="-5" font-size="10">(x, y, z, 反射強度)</text>
        <!-- Points -->
        <g fill="#4299E1">
            <circle cx="10" cy="10" r="2"/>
            <circle cx="25" cy="15" r="2"/>
            <circle cx="15" cy="30" r="2"/>
            <circle cx="40" cy="20" r="2"/>
            <circle cx="30" cy="40" r="2"/>
            <circle cx="45" cy="35" r="2"/>
            <circle cx="20" cy="25" r="2"/>
            <circle cx="35" cy="5" r="2"/>
        </g>
        <rect width="60" height="50" fill="none" stroke="#2B6CB0" stroke-width="1"/>
    </g>
    
    <!-- Arrow -->
    <path d="M140,75 L190,75" stroke="#000000" stroke-width="2" marker-end="url(#arrow)"/>
    
    <!-- Pillar Creation Section -->
    <g transform="translate(200,50)">
        <!-- Title -->
        <text x="0" y="-20" font-size="14" font-weight="bold">2. ピラー生成</text>
        <text x="0" y="-5" font-size="10">(空間的な離散化)</text>
        <!-- Grid -->
        <g stroke="#CBD5E0" stroke-width="0.5">
            <line x1="0" y1="0" x2="60" y2="0"/>
            <line x1="0" y1="25" x2="60" y2="25"/>
            <line x1="0" y1="50" x2="60" y2="50"/>
            <line x1="0" y1="0" x2="0" y2="50"/>
            <line x1="20" y1="0" x2="20" y2="50"/>
            <line x1="40" y1="0" x2="40" y2="50"/>
            <line x1="60" y1="0" x2="60" y2="50"/>
        </g>
        <!-- Points in grid -->
        <g fill="#4299E1">
            <circle cx="10" cy="10" r="2"/>
            <circle cx="25" cy="15" r="2"/>
            <circle cx="15" cy="30" r="2"/>
            <circle cx="40" cy="20" r="2"/>
            <circle cx="30" cy="40" r="2"/>
            <circle cx="45" cy="35" r="2"/>
        </g>
        <!-- Pillars -->
        <g fill="#90CDF4" fill-opacity="0.3">
            <rect x="0" y="0" width="20" height="50"/>
            <rect x="20" y="0" width="20" height="50"/>
            <rect x="40" y="0" width="20" height="50"/>
        </g>
    </g>
    
    <!-- Arrow -->
    <path d="M290,75 L340,75" stroke="#000000" stroke-width="2" marker-end="url(#arrow)"/>
    
    <!-- Feature Extraction Section -->
    <g transform="translate(350,25)">
        <!-- Title -->
        <text x="0" y="5" font-size="14" font-weight="bold">3. 特徴抽出</text>
        <text x="0" y="20" font-size="10">(ピラーごとの特徴エンコード)</text>
        <!-- Feature boxes -->
        <g transform="translate(0,30)">
            <rect width="80" height="15" fill="#ED8936"/>
            <rect y="20" width="80" height="15" fill="#ED8936"/>
            <rect y="40" width="80" height="15" fill="#ED8936"/>
            <!-- Feature text -->
            <text x="5" y="12" font-size="10" fill="white">幾何学的特徴</text>
            <text x="5" y="32" font-size="10" fill="white">統計的特徴</text>
            <text x="5" y="52" font-size="10" fill="white">点密度特徴</text>
        </g>
    </g>
    
    <!-- Arrow -->
    <path d="M460,75 L510,75" stroke="#000000" stroke-width="2" marker-end="url(#arrow)"/>
    
    <!-- CNN Processing Section -->
    <g transform="translate(520,25)">
        <!-- Title -->
        <text x="0" y="5" font-size="14" font-weight="bold">4. CNN処理</text>
        <text x="0" y="20" font-size="10">(2D畳み込みによる特徴学習)</text>
        <!-- CNN layers -->
        <g transform="translate(0,30)">
            <rect width="60" height="60" fill="#48BB78"/>
            <rect x="10" y="10" width="40" height="40" fill="#38A169"/>
            <rect x="20" y="20" width="20" height="20" fill="#2F855A"/>
            <text x="5" y="80" font-size="10">畳み込み層</text>
        </g>
    </g>
    
    <!-- Arrow -->
    <path d="M610,75 L660,75" stroke="#000000" stroke-width="2" marker-end="url(#arrow)"/>
    
    <!-- Output Section -->
    <g transform="translate(670,25)">
        <!-- Title -->
        <text x="0" y="5" font-size="14" font-weight="bold">5. 検出出力</text>
        <text x="0" y="20" font-size="10">(3D物体検出結果)</text>
        <!-- Output box -->
        <g transform="translate(0,30)">
            <rect width="80" height="60" fill="#667EEA" fill-opacity="0.2" stroke="#667EEA"/>
            <!-- Car bbox -->
            <rect x="10" y="10" width="30" height="20" fill="none" stroke="#667EEA" stroke-width="2"/>
            <text x="5" y="50" font-size="10" fill="#667EEA">位置・サイズ・クラス</text>
        </g>
    </g>
    
    <!-- Arrow marker definition -->
    <defs>
        <marker id="arrow" viewBox="0 0 10 10" refX="9" refY="5"
            markerWidth="6" markerHeight="6" orient="auto">
            <path d="M 0 0 L 10 5 L 0 10 z" fill="#000000"/>
        </marker>
    </defs>
    
    <!-- Process description text -->
    <g transform="translate(50,300)" font-size="12">
        <text x="0" y="0" font-weight="bold">処理ステップの詳細説明：</text>
        <text x="0" y="25">1. 入力点群データ処理</text>
        <text x="20" y="45" font-size="11">・各点は(x, y, z)座標と反射強度を持つ</text>
        <text x="20" y="65" font-size="11">・LiDARセンサーからの生データを前処理</text>
        
        <text x="0" y="90">2. ピラー化処理</text>
        <text x="20" y="110" font-size="11">・地面に垂直な柱状領域（ピラー）に点群を分割</text>
        <text x="20" y="130" font-size="11">・各ピラー内の点を効率的に処理</text>
        
        <text x="0" y="155">3. 特徴抽出処理</text>
        <text x="20" y="175" font-size="11">・各ピラー内の点から幾何学的特徴を計算</text>
        <text x="20" y="195" font-size="11">・平均値、分散などの統計量を算出</text>
        
        <text x="400" y="25">4. CNN処理</text>
        <text x="420" y="45" font-size="11">・2D畳み込みネットワークで特徴を学習</text>
        <text x="420" y="65" font-size="11">・複数の畳み込み層で階層的な特徴抽出</text>
        
        <text x="400" y="90">5. 検出出力生成</text>
        <text x="420" y="110" font-size="11">・3D物体の位置とサイズを推定</text>
        <text x="420" y="130" font-size="11">・物体クラスの分類と信頼度スコアの計算</text>
        <text x="420" y="150" font-size="11">・非最大値抑制（NMS）による重複検出の除去</text>
    </g>
</svg>
