<svg viewBox="0 0 800 600" xmlns="http://www.w3.org/2000/svg">
    <!-- 背景 -->
    <rect width="800" height="600" fill="#f8fafc"/>
    
    <!-- グリッド線（3D効果用） -->
    <g stroke="#e2e8f0" stroke-width="0.5">
        <!-- X-Y平面 -->
        <line x1="50" y1="300" x2="350" y2="300"/>
        <line x1="50" y1="250" x2="350" y2="250"/>
        <line x1="50" y1="350" x2="350" y2="350"/>
        <!-- Y-Z平面 -->
        <line x1="50" y1="200" x2="50" y2="400"/>
        <line x1="150" y1="200" x2="150" y2="400"/>
        <line x1="250" y1="200" x2="250" y2="400"/>
        <!-- 等角投影の補助線 -->
        <line x1="50" y1="300" x2="100" y2="250" stroke-dasharray="2,2"/>
        <line x1="350" y1="300" x2="400" y2="250" stroke-dasharray="2,2"/>
        <line x1="350" y1="350" x2="400" y2="300" stroke-dasharray="2,2"/>
    </g>

    <!-- 座標軸 -->
    <g stroke="#000000" stroke-width="2">
        <line x1="50" y1="300" x2="350" y2="300" marker-end="url(#arrow)"/> <!-- X軸 -->
        <line x1="50" y1="300" x2="50" y2="100" marker-end="url(#arrow)"/> <!-- Y軸 -->
        <line x1="50" y1="300" x2="100" y2="250" marker-end="url(#arrow)"/> <!-- Z軸 -->
        <!-- 軸ラベル -->
        <text x="360" y="305" font-size="12">X (前方)</text>
        <text x="30" y="95" font-size="12">Y (高さ)</text>
        <text x="110" y="245" font-size="12">Z (横方向)</text>
    </g>

    <!-- 点群データ（車両付近の点を表現） -->
    <g>
        <!-- 地面の点群 -->
        <g fill="#4299E1" fill-opacity="0.6">
            <circle cx="150" cy="320" r="1.5"/>
            <circle cx="170" cy="320" r="1.5"/>
            <circle cx="190" cy="320" r="1.5"/>
            <circle cx="210" cy="320" r="1.5"/>
            <circle cx="230" cy="320" r="1.5"/>
            <circle cx="250" cy="320" r="1.5"/>
        </g>
        
        <!-- 車両のボディを表現する点群 -->
        <g fill="#ED8936" fill-opacity="0.8">
            <!-- 前面 -->
            <circle cx="200" cy="290" r="1.5"/>
            <circle cx="200" cy="280" r="1.5"/>
            <circle cx="200" cy="270" r="1.5"/>
            <!-- 側面 -->
            <circle cx="180" cy="290" r="1.5"/>
            <circle cx="160" cy="290" r="1.5"/>
            <circle cx="220" cy="290" r="1.5"/>
            <circle cx="240" cy="290" r="1.5"/>
            <!-- 上面 -->
            <circle cx="200" cy="260" r="1.5"/>
            <circle cx="220" cy="260" r="1.5"/>
            <circle cx="180" cy="260" r="1.5"/>
        </g>
    </g>

    <!-- 説明テキスト -->
    <g transform="translate(420,50)" font-size="12">
        <text x="0" y="0" font-size="14" font-weight="bold">1. LiDARセンサーからの3D点群データ</text>
        
        <text x="0" y="30" font-weight="bold">データ形式:</text>
        <text x="20" y="50">・各点: (x, y, z, intensity)</text>
        <text x="20" y="70">・x: 前方向の距離 [m]</text>
        <text x="20" y="90">・y: 垂直方向の高さ [m]</text>
        <text x="20" y="110">・z: 横方向の距離 [m]</text>
        <text x="20" y="130">・intensity: 反射強度 [0-255]</text>
        
        <text x="0" y="160" font-weight="bold">点群の特徴:</text>
        <text x="20" y="180">・点の密度: ~1,000,000点/フレーム</text>
        <text x="20" y="200">・検出範囲: 半径70m以内</text>
        <text x="20" y="220">・垂直視野角: -15°〜+15°</text>
        <text x="20" y="240">・水平視野角: 360°</text>
        
        <text x="0" y="270" font-weight="bold">データの特性:</text>
        <text x="20" y="290">・不均一な点密度分布</text>
        <text x="20" y="310">・距離による密度減衰</text>
        <text x="20" y="330">・オクルージョンによる欠損</text>
        
        <text x="0" y="360" font-weight="bold">前処理:</text>
        <text x="20" y="380">・地面点の除去</text>
        <text x="20" y="400">・ノイズ点のフィルタリング</text>
        <text x="20" y="420">・座標系の正規化</text>
        <text x="20" y="440">・反射強度の正規化</text>
        
        <text x="0" y="470" font-weight="bold">用途別の特徴抽出:</text>
        <text x="20" y="490">・物体検出用の局所特徴量</text>
        <text x="20" y="510">・セグメンテーション用の空間特徴</text>
    </g>

    <!-- 凡例 -->
    <g transform="translate(50,450)">
        <circle cx="10" cy="10" r="4" fill="#4299E1"/>
        <text x="20" y="15" font-size="12">地面点</text>
        <circle cx="10" cy="30" r="4" fill="#ED8936"/>
        <text x="20" y="35" font-size="12">物体点</text>
    </g>

    <!-- 矢印マーカーの定義 -->
    <defs>
        <marker id="arrow" viewBox="0 0 10 10" refX="9" refY="5"
            markerWidth="6" markerHeight="6" orient="auto">
            <path d="M 0 0 L 10 5 L 0 10 z"/>
        </marker>
    </defs>
</svg>
